<?xml version="1.0" encoding="UTF-8" standalone="no"?>
<!-- Created with Inkscape (http://www.inkscape.org/) -->

<svg
   xmlns:dc="http://purl.org/dc/elements/1.1/"
   xmlns:cc="http://creativecommons.org/ns#"
   xmlns:rdf="http://www.w3.org/1999/02/22-rdf-syntax-ns#"
   xmlns:svg="http://www.w3.org/2000/svg"
   xmlns="http://www.w3.org/2000/svg"
   xmlns:sodipodi="http://sodipodi.sourceforge.net/DTD/sodipodi-0.dtd"
   xmlns:inkscape="http://www.inkscape.org/namespaces/inkscape"
   id="svg4169"
   version="1.1"
   inkscape:version="0.91 r13725"
   width="947.8125"
   height="1893.75"
   viewBox="0 0 947.8125 1893.75"
   sodipodi:docname="TB2017.svg">
  <metadata
     id="metadata4175">
    <rdf:RDF>
      <cc:Work
         rdf:about="">
        <dc:format>image/svg+xml</dc:format>
        <dc:type
           rdf:resource="http://purl.org/dc/dcmitype/StillImage" />
        <dc:title></dc:title>
      </cc:Work>
    </rdf:RDF>
  </metadata>
  <defs
     id="defs4173" />
  <sodipodi:namedview
     pagecolor="#ffffff"
     bordercolor="#666666"
     borderopacity="1"
     objecttolerance="10"
     gridtolerance="10"
     guidetolerance="10"
     inkscape:pageopacity="0"
     inkscape:pageshadow="2"
     inkscape:window-width="1366"
     inkscape:window-height="706"
     id="namedview4171"
     showgrid="false"
     inkscape:zoom="0.28356436"
     inkscape:cx="188.25681"
     inkscape:cy="952.71305"
     inkscape:window-x="-8"
     inkscape:window-y="-8"
     inkscape:window-maximized="1"
     inkscape:current-layer="svg4169" />
  <path
     style="fill:none;stroke:#000000;stroke-width:7;stroke-miterlimit:4;stroke-dasharray:none;stroke-opacity:1"
     d="m 158.68279,1892.7505 c -25.4529,-7.6281 -26.54078,-7.8673 -35.82613,-7.876 -5.6303,-0.01 -13.40065,0.7324 -18.85781,1.7902 -8.824424,1.7107 -10.441154,1.7352 -32.816654,0.4982 l -23.53496,-1.3011 -6.54021,2.783 c -3.59712,1.5308 -7.81694,2.7832 -9.37737,2.7832 -3.49829,0 -12.32769,3.8121 -14.98562,6.47 -4.01071,4.0107 -7.1725196,2.2278 -10.8404496,-6.1126 l -2.52271,-5.7364 3.42076,-22.8574 c 2.28831,-15.2904 9.2910396,-50.4795 21.1529996,-106.2949 12.19493,-57.3821 21.84713,-105.9797 30.90937,-155.625 7.24742,-39.7031 16.73539,-90.75 21.08437,-113.4375 4.34899,-22.6875 15.10791,-82.1718 23.908714,-132.1875 8.8008,-50.0156 24.20439,-136.9218 34.2302,-193.125 l 18.22875,-102.1875 12.17662,-103.12487 c 6.69713,-56.71875 17.05089,-148.6875 23.00835,-204.375 18.15057,-169.66308 27.50682,-255.41345 31.35215,-287.34375 3.31735,-27.54599 4.07684,-31.84523 7.91747,-44.81819 l 4.24814,-14.34944 8.23829,-10.86016 c 4.531,-5.97309 9.082,-11.39238 10.1132,-12.04285 1.0313,-0.65049 14.3076,-5.88929 29.5029,-11.64179 l 27.6278,-10.45907 7.7969,3.01429 c 6.9603,2.69092 8.3798,3.67741 13.2309,9.19513 2.9888,3.39945 7.1511,8.71208 9.2496,11.80583 2.0986,3.09375 5.5184,7.26755 7.5997,9.27511 l 3.7842,3.65012 7.0802,-0.64159 c 6.9324,-0.6282 13.9237,0.40047 15.0443,2.21355 0.2897,0.46886 1.8137,5.20349 3.3866,10.52139 2.1406,7.23735 3.6095,10.453 5.8409,12.78674 2.5423,2.65896 23.4732,17.97593 24.5644,17.97593 1.629,0 4.5929,-5.42519 6.6244,-12.12541 1.3392,-4.41697 3.2745,-9.40285 4.3006,-11.07975 1.0581,-1.72895 9.6452,-8.88084 19.835,-16.51982 9.883,-7.409 19.4798,-15.10729 21.3262,-17.10734 2.1342,-2.31186 5.5422,-8.58793 9.356,-17.23018 3.2995,-7.47656 6.9869,-15.37613 8.1944,-17.5546 2.3257,-4.19609 10.5156,-11.02556 22.8452,-19.05032 4.7237,-3.07449 8.3998,-6.36207 10.7169,-9.58428 3.3537,-4.66376 7.812,-15.26937 7.8544,-18.68428 0.011,-0.87573 1.1153,-5.06015 2.4542,-9.29871 1.9092,-6.0434 4.4654,-10.74302 11.8452,-21.77744 11.4623,-17.13859 13.1642,-20.71082 12.3358,-25.8917 -0.3365,-2.10388 -0.9782,-4.05171 -1.4261,-4.32853 -0.4479,-0.27681 -0.8143,-1.71469 -0.8143,-3.1953 0,-2.35083 1.396,-3.72116 11.0156,-10.81283 6.0586,-4.46647 15.6465,-10.45355 21.3064,-13.30464 5.6599,-2.85109 11.6157,-6.1944 13.2351,-7.42957 6.493,-4.95245 12.1947,-15.96925 14.9733,-28.93155 1.8118,-8.45189 5.6621,-18.53122 9.1307,-23.90231 2.1629,-3.34941 8.9988,-11.57597 15.1909,-18.28125 11.6726,-12.64012 19.2709,-22.51947 21.5915,-28.07345 0.7405,-1.77242 2.6074,-7.860234 4.1486,-13.528478 1.5412,-5.668245 4.4645,-13.903777 6.4961,-18.301182 2.0316,-4.397405 5.2026,-13.256695 7.0467,-19.687311 5.1787,-18.058692 6.7413,-20.183469 25.3963,-34.532498 l 12.1875,-9.37437 4.863,0.500981 c 3.0286,0.312008 6.205,1.412899 8.4208,2.918546 5.9309,4.030188 8.0254,3.598265 32.3563,-6.6724109 4.8601,-2.0515391 7.9723,-0.9651393 13.1022,4.5735649 l 4.3673,4.715344 5.2773,-1.974467 c 4.7978,-1.795087 7.2146,-1.974466 26.6022,-1.974466 l 21.325,0 4.7164,4.921875 c 7.6531,7.986568 10.6883,11.905477 10.6883,13.80018 0,0.979997 -3.7379,6.344224 -8.3064,11.920504 -8.106,9.894124 -8.9411,10.590978 -34.6201,28.88869 -29.651,21.12798 -31.4964,22.996009 -28.638,28.990168 1.2057,2.52823 2.1772,3.35358 3.9475,3.35358 1.2915,0 9.6837,-3.42778 18.6492,-7.617286 13.9685,-6.527344 16.6143,-7.474536 18.4906,-6.619648 3.7114,1.691049 3.7506,4.329682 0.1761,11.856564 -1.8,3.79026 -5.4838,10.16806 -8.1862,14.17292 -5.6025,8.30258 -6.4461,8.56748 9.4248,-2.95982 15.8169,-11.48811 25.8573,-14.670375 39.6339,-12.56176 6.3652,0.97425 9.1813,2.02222 16.1473,6.00899 12.1002,6.92517 13.5248,7.39597 20.0781,6.63538 5.0142,-0.58198 6.7838,-1.44902 16.2128,-7.94371 9.2447,-6.36785 12.0839,-7.77784 22.4353,-11.142109 6.5182,-2.118426 14.232,-4.1315 17.1419,-4.473497 4.7492,-0.558181 5.536,-0.392355 7.688,1.620458 1.3185,1.233248 2.7931,2.976406 3.2768,3.873682 1.7657,3.275202 -3.8255,18.741526 -8.0393,22.238696 -1.0541,0.87478 -0.8892,1.44909 0.9418,3.28007 1.2208,1.22078 2.5231,3.41609 2.8942,4.87847 0.371,1.46238 -0.6654,22.48698 -2.3029,46.72136 l -2.9775,44.0625 -6.9734,33.75 c -3.8353,18.5625 -7.7856,36.07031 -8.7783,38.90625 -0.9926,2.83594 -4.1165,8.74219 -6.9419,13.125 -2.8254,4.38281 -5.8675,10.28906 -6.7602,13.125 -0.8928,2.83594 -9.0459,20.66177 -18.1182,39.61297 l -16.495,34.4567 -5.8667,3.9808 c -5.7886,3.92775 -6.0759,4.33665 -21.5701,30.69953 -8.6369,14.69531 -15.806,26.93856 -15.9314,27.20722 -0.1254,0.26865 0.099,4.44112 0.4995,9.27215 l 0.7276,8.78369 -7.7167,30.5716 c -7.0498,27.92977 -8.7067,33.16401 -19.173,60.57159 -6.3011,16.5 -13.1092,33.01295 -15.1292,36.69543 -2.02,3.68249 -7.7493,11.27051 -12.7316,16.86228 -11.3255,12.71059 -16.2031,20.25549 -19.449,30.08428 -2.2616,6.84808 -2.4721,8.53319 -1.8941,15.15973 0.8396,9.62498 2.7553,12.01827 15.7999,19.73867 5.3958,3.19351 10.2092,6.30492 10.6965,6.91425 0.4873,0.60933 1.5566,3.4477 2.3761,6.30752 2.2193,7.744 3.8446,8.80006 17.955,11.66605 12.089,2.45541 12.2197,2.50976 16.1719,6.72368 2.1914,2.33654 3.9844,5.16117 3.9844,6.27694 0,1.98635 -6.8127,13.06791 -10.6006,17.24304 -1.7377,1.91532 -2.7397,2.10484 -10.891,2.06006 -4.9374,-0.0271 -12.1397,-0.61464 -16.0051,-1.30558 -6.5429,-1.16957 -7.1997,-1.13393 -9.5176,0.51655 -1.7449,1.24252 -3.067,3.67365 -4.4197,8.12717 -1.0616,3.49488 -10.2029,27.22603 -20.3142,52.73588 l -18.384,46.38155 -7.0349,34.21875 c -3.8692,18.82031 -8.0435,39.91406 -9.2763,46.875 -1.2327,6.96094 -3.2238,17.50781 -4.4246,23.4375 -1.979,9.77259 -2.0743,11.39522 -1.0186,17.34375 0.6405,3.60937 1.5866,16.16306 2.1025,27.897 0.606,13.78557 1.3696,22.22707 2.1579,23.85717 0.897,1.8549 3.0818,3.2799 8.2544,5.3841 3.869,1.5739 7.5502,3.1966 8.1803,3.606 2.6859,1.7448 8.2076,13.6452 10.2756,22.1461 1.9797,8.1375 2.1946,11.2384 2.28,32.8908 0.052,13.1484 0.1524,26.0156 0.2236,28.5937 0.1911,6.9218 -2.4183,12.8975 -6.477,14.833 -1.8146,0.8653 -4.8671,1.5749 -6.7832,1.5768 -1.9161,0 -4.8479,0.8353 -6.5152,1.8518 -4.4715,2.7264 -15.599,14.5285 -20.8529,22.1174 -9.8585,14.2396 -10.2363,20.6518 -2.2497,38.1876 3.6556,8.0264 5.0403,12.2001 5.0403,15.1927 0,2.9002 0.7219,5.1833 2.4297,7.6835 2.0305,2.9729 2.3584,4.3175 1.9958,8.1851 -0.6245,6.6616 -3.0237,8.3942 -10.7656,7.7747 -5.7136,-0.4572 -5.9954,-0.371 -10.4934,3.2104 -3.5299,2.8105 -5.0857,4.9191 -6.5837,8.9228 -1.0788,2.8834 -3.8362,7.437 -6.1276,10.1191 -5.8015,6.7908 -6.7452,11.334 -5.2105,25.0852 l 1.1799,10.5724 -6.2456,26.6484 c -3.4352,14.6566 -7.107,28.3366 -8.1597,30.3999 -1.0526,2.0635 -3.8977,5.892 -6.3223,8.5079 -9.2727,10.0044 -10.8865,12.769 -16.4577,28.1938 -2.9798,8.25 -6.2741,16.6875 -7.3207,18.75 -4.3618,8.5954 -5.2596,13.7674 -4.1901,24.1365 0.975,9.4528 0.9507,9.6919 -1.4502,14.301 -1.343,2.5782 -3.8408,6.3105 -5.5506,8.294 -2.5381,2.9444 -3.8798,3.6894 -7.3089,4.058 -6.1974,0.6662 -7.4376,-0.6852 -8.1221,-8.8501 -0.3128,-3.7307 -0.8239,-6.7831 -1.1358,-6.7831 -0.312,0 -1.7008,1.4209 -3.0864,3.1573 -3.6432,4.5661 -4.4616,8.6011 -2.8021,13.8166 1.8988,5.9675 1.0024,8.2235 -4.9528,12.4655 -7.0669,5.0339 -7.9863,6.1632 -14.5772,17.9043 -9.4037,16.7523 -9.7432,17.1702 -16.3623,20.14 -6.6251,2.9724 -5.9947,1.7272 -8.5512,16.8913 -0.8259,4.8984 -1.9593,9.4614 -2.5188,10.1399 -1.8167,2.2031 -6.1345,3.9226 -9.8502,3.9226 -4.8734,0 -6.2284,1.639 -13.6458,16.5063 -5.5323,11.0887 -10.1012,17.2437 -12.8,17.2437 -0.4287,0 -5.3985,5.8008 -11.0439,12.8906 -11.2002,14.0658 -17.0952,25.3322 -17.0952,32.6719 0,5.5506 -1.7504,7.3775 -7.1871,7.5014 -4.5069,0.1028 -14.8871,2.7005 -16.7656,4.1956 -0.5412,0.4308 -1.9681,3.5708 -3.1709,6.9777 -2.4815,7.0291 -5.2712,9.6791 -8.4171,7.9955 -2.9399,-1.5734 -3.6583,-3.8125 -2.947,-9.1858 0.736,-5.5603 0.763,-5.5445 -5.9582,-3.5055 -2.5312,0.7679 -5.0887,1.3961 -5.6834,1.3961 -0.5947,0 -3.6361,-1.8985 -6.7588,-4.219 -5.1828,-3.8515 -5.8164,-4.714 -7.2711,-9.8984 -1.5543,-5.5395 -1.667,-5.6723 -4.5765,-5.3904 -2.9511,0.286 -2.9906,0.3572 -3.686,6.6542 -0.8528,7.7217 -3.606,13.5069 -7.0698,14.8555 -1.3969,0.5439 -7.6023,1.802 -13.7898,2.7959 -7.8163,1.2554 -11.9653,2.3806 -13.5937,3.6868 -5.8844,4.7197 -10.6978,7.2977 -14.7642,7.9076 -2.4258,0.3637 -5.9651,1.4544 -7.8651,2.4237 -4.6762,2.3857 -6.0656,7.0697 -7.2767,24.5313 -0.5898,8.5046 -1.761,16.794 -3.0464,21.5625 -4.1379,15.3499 -15.1181,27.2301 -27.5164,29.772 -3.0937,0.6343 -6.3765,1.5498 -7.295,2.0345 -2.8916,1.5258 -7.0491,8.1768 -9.1746,14.6769 -2.5931,7.9303 -4.3951,9.8834 -13.0074,14.0984 -9.6756,4.7356 -19.9551,14.7593 -21.4734,20.9393 -0.5944,2.4197 -1.0982,6.0057 -1.1195,7.9687 -0.021,1.9631 -0.9704,5.4677 -2.1093,7.788 -2.0363,4.1486 -2.2345,4.2736 -11.9145,7.5159 -11.8886,3.9822 -21.08963,9.8232 -30.59705,19.4235 -6.5946,6.6592 -6.78166,6.9809 -8.63983,14.8635 l -1.89929,8.0569 4.80113,14.9076 4.80114,14.9074 -2.23277,9.4582 c -1.22802,5.202 -2.69564,10.0912 -3.26137,10.8649 -1.14556,1.5666 -27.28755,12.5554 -29.52181,12.4094 -0.78041,-0.051 -13.23142,-3.6328 -27.66892,-7.9598 z m 458.03287,-495.1687 1.8257,-5.3725 -4.6483,5.1562 -4.6482,5.1563 1.9964,1.6925 c 2.3783,2.0165 2.6452,1.693 5.4744,-6.6325 z"
     id="path4179"
     inkscape:connector-curvature="0" />
  <text
     xml:space="preserve"
     style="font-style:normal;font-variant:normal;font-weight:normal;font-stretch:normal;font-size:359.58230591px;line-height:100%;font-family:Jokerman;-inkscape-font-specification:'Jokerman, Normal';text-align:center;letter-spacing:0px;word-spacing:0px;writing-mode:lr-tb;text-anchor:middle;fill:#000000;fill-opacity:1;stroke:none;stroke-width:1px;stroke-linecap:butt;stroke-linejoin:miter;stroke-opacity:1"
     x="632.51666"
     y="465.74585"
     id="text4181"
     sodipodi:linespacing="100%"
     transform="scale(0.74728948,1.3381695)"><tspan
       sodipodi:role="line"
       id="tspan4183"
       x="676.03503"
       y="465.74585"
       style="font-style:normal;font-variant:normal;font-weight:normal;font-stretch:normal;font-size:359.58230591px;line-height:100%;font-family:Jokerman;-inkscape-font-specification:'Jokerman, Normal';text-align:center;writing-mode:lr-tb;text-anchor:middle">Team </tspan><tspan
       sodipodi:role="line"
       x="632.51666"
       y="813.89282"
       style="font-style:normal;font-variant:normal;font-weight:normal;font-stretch:normal;font-size:359.58230591px;line-height:100%;font-family:Jokerman;-inkscape-font-specification:'Jokerman, Normal';text-align:center;writing-mode:lr-tb;text-anchor:middle"
       id="tspan4185">Belize</tspan><tspan
       sodipodi:role="line"
       x="632.51666"
       y="1162.0398"
       style="font-style:normal;font-variant:normal;font-weight:normal;font-stretch:normal;font-size:359.58230591px;line-height:100%;font-family:Jokerman;-inkscape-font-specification:'Jokerman, Normal';text-align:center;writing-mode:lr-tb;text-anchor:middle"
       id="tspan4187">2017</tspan></text>
  <flowRoot
     xml:space="preserve"
     id="flowRoot4189"
     style="fill:black;stroke:none;stroke-opacity:1;stroke-width:1px;stroke-linejoin:miter;stroke-linecap:butt;fill-opacity:1;font-family:sans-serif;font-style:normal;font-weight:normal;font-size:40px;line-height:125%;letter-spacing:0px;word-spacing:0px"><flowRegion
       id="flowRegion4191"><rect
         id="rect4193"
         width="500.76816"
         height="454.92319"
         x="-1036.8016"
         y="483.13547" /></flowRegion><flowPara
       id="flowPara4195"></flowPara></flowRoot></svg>
